<?xml version="1.0" standalone="no"?>
<!DOCTYPE svg PUBLIC "-//W3C//DTD SVG 20010904//EN"
 "http://www.w3.org/TR/2001/REC-SVG-20010904/DTD/svg10.dtd">
<svg version="1.0" xmlns="http://www.w3.org/2000/svg"
 width="210.000000pt" height="210.000000pt" viewBox="0 0 210.000000 210.000000"
 preserveAspectRatio="xMidYMid meet">
<metadata>
Created by potrace 1.11, written by Peter Selinger 2001-2013
</metadata>
<g transform="translate(0.000000,210.000000) scale(0.100000,-0.100000)"
fill="#000000" stroke="none">
<path d="M917 1839 c-27 -4 -69 -10 -93 -14 -66 -9 -210 -52 -294 -89 -138
-61 -313 -177 -387 -257 l-22 -24 61 -63 c33 -34 62 -62 65 -62 3 0 31 22 62
48 120 103 317 215 333 189 15 -24 7 -33 -58 -65 -88 -44 -154 -87 -236 -154
l-66 -54 65 -68 c64 -66 66 -67 87 -49 11 10 23 21 26 24 16 18 124 92 173
118 54 29 182 77 232 87 273 55 550 -11 764 -182 l80 -64 40 42 41 43 -38 34
c-61 56 -133 107 -202 144 -71 38 -212 90 -275 102 -22 4 -43 11 -46 16 -6 10
15 156 24 165 9 10 173 -35 257 -69 138 -56 252 -127 356 -220 l51 -46 42 43
42 42 -53 50 c-29 27 -64 57 -78 66 -14 10 -43 30 -65 46 -133 94 -353 184
-510 207 -22 4 -53 9 -70 12 -49 8 -256 10 -308 2z"/>
<path d="M1292 1638 c-27 -27 -4 -78 37 -78 14 0 41 29 41 45 0 35 -53 58 -78
33z"/>
<path d="M1038 1286 c-1 -2 -30 -6 -63 -9 -79 -8 -196 -39 -268 -71 -66 -29
-174 -99 -226 -145 l-34 -30 25 -29 24 -29 63 53 c79 66 202 128 301 153 l75
19 11 -52 c12 -59 10 -71 -14 -73 -29 -3 -137 -40 -183 -64 -58 -29 -159 -107
-159 -122 0 -7 12 -20 25 -30 25 -18 26 -18 73 21 103 83 219 125 357 126 109
0 162 -8 238 -39 58 -23 154 -84 183 -116 14 -16 18 -14 57 28 l41 44 -30 26
c-39 35 -135 97 -173 113 -29 12 -39 29 -24 43 7 8 137 -60 172 -89 13 -11 36
-31 53 -45 l30 -26 22 22 c11 12 30 32 40 44 l20 22 -35 30 c-59 53 -170 121
-251 155 -43 19 -78 31 -78 29 0 -3 -11 0 -25 5 -37 14 -71 20 -150 26 -38 2
-75 7 -82 9 -6 2 -13 2 -15 1z"/>
<path d="M864 1135 c-8 -19 3 -35 26 -35 19 0 30 17 23 38 -6 17 -42 15 -49
-3z"/>
<path d="M925 829 c-75 -23 -97 -34 -164 -83 l-53 -40 27 -24 c27 -23 28 -23
49 -4 55 49 126 84 126 63 0 -6 -5 -11 -11 -11 -17 0 -119 -74 -119 -86 0 -6
9 -19 19 -28 19 -17 22 -17 65 13 127 87 276 84 404 -7 26 -19 36 -21 47 -12
8 7 12 17 9 22 -13 21 -114 78 -159 89 -45 11 -47 13 -41 42 3 17 8 32 10 34
10 11 142 -43 187 -77 60 -45 62 -45 78 -26 9 10 -1 22 -49 57 -122 89 -286
119 -425 78z"/>
<path d="M1142 759 c2 -6 8 -10 13 -10 5 0 11 4 13 10 2 6 -4 11 -13 11 -9 0
-15 -5 -13 -11z"/>
<path d="M978 525 c-92 -46 -131 -156 -87 -249 67 -143 271 -143 338 0 75 160
-94 328 -251 249z"/>
</g>
</svg>
